<svg width="24" height="24" viewBox="0 0 24 24" fill="none" xmlns="http://www.w3.org/2000/svg">
<g id="Frame 9" clip-path="url(#clip0_230_1340)">
<g id="Union">
<path d="M18.0897 9.56302C18.4773 9.16953 18.4724 8.53638 18.079 8.14885C17.6855 7.76131 17.0523 7.76615 16.6648 8.15964L10.3896 14.5313L7.46359 11.3108C7.0922 10.902 6.45976 10.8717 6.05099 11.2431C5.64223 11.6145 5.61193 12.247 5.98332 12.6557L9.62021 16.6586C9.80504 16.862 10.0654 16.9804 10.3402 16.9859C10.615 16.9915 10.88 16.8837 11.0728 16.6878L18.0897 9.56302Z" fill="url(#paint0_linear_230_1340)"/>
<path fill-rule="evenodd" clip-rule="evenodd" d="M23.5 12C23.5 18.3513 18.3513 23.5 12 23.5C5.64873 23.5 0.5 18.3513 0.5 12C0.5 5.64873 5.64873 0.5 12 0.5C18.3513 0.5 23.5 5.64873 23.5 12ZM21.5 12C21.5 17.2467 17.2467 21.5 12 21.5C6.75329 21.5 2.5 17.2467 2.5 12C2.5 6.75329 6.75329 2.5 12 2.5C17.2467 2.5 21.5 6.75329 21.5 12Z" fill="url(#paint1_linear_230_1340)"/>
</g>
</g>
<defs>
<linearGradient id="paint0_linear_230_1340" x1="23.5" y1="3.68361" x2="0.5" y2="20.3164" gradientUnits="userSpaceOnUse">
<stop stop-color="#3A7D5E"/>
<stop offset="1" stop-color="#1C9260"/>
</linearGradient>
<linearGradient id="paint1_linear_230_1340" x1="23.5" y1="3.68361" x2="0.5" y2="20.3164" gradientUnits="userSpaceOnUse">
<stop stop-color="#3A7D5E"/>
<stop offset="1" stop-color="#1C9260"/>
</linearGradient>
<clipPath id="clip0_230_1340">
<rect width="23" height="23" fill="white" transform="translate(0.5 0.5)"/>
</clipPath>
</defs>
</svg>
